<?xml version="1.0" standalone="no"?>
<!DOCTYPE svg PUBLIC "-//W3C//DTD SVG 1.1//EN" "http://www.w3.org/Graphics/SVG/1.1/DTD/svg11.dtd">
<svg width="570" height="322" version="1.1" xmlns="http://www.w3.org/2000/svg">
<rect x="454" y="25" width="91" height="22" style="fill:rgb(255,255,255);stroke:rgb(0,0,0);stroke-width:1"/>
<text x="499.5" y="36" style="font-family:Arial;font-size:8pt;fill:rgb(0,0,0);font-weight:bold;text-anchor:middle;dominant-baseline:central">concentration</text>
<line x1="456" y1="27" x2="464" y2="27" style="stroke:rgb(0,0,0);stroke-width:1"/>
<line x1="456" y1="29" x2="462" y2="29" style="stroke:rgb(0,0,0);stroke-width:1"/>
<line x1="456" y1="31" x2="462" y2="31" style="stroke:rgb(0,0,0);stroke-width:1"/>
<line x1="456" y1="33" x2="462" y2="33" style="stroke:rgb(0,0,0);stroke-width:1"/>

<rect x="454" y="77" width="78" height="22" style="fill:rgb(255,255,255);stroke:rgb(0,0,0);stroke-width:1"/>
<text x="493" y="88" style="font-family:Arial;font-size:8pt;fill:rgb(0,0,0);font-weight:bold;text-anchor:middle;dominant-baseline:central">description</text>
<line x1="456" y1="79" x2="464" y2="79" style="stroke:rgb(0,0,0);stroke-width:1"/>
<line x1="456" y1="81" x2="462" y2="81" style="stroke:rgb(0,0,0);stroke-width:1"/>
<line x1="456" y1="83" x2="462" y2="83" style="stroke:rgb(0,0,0);stroke-width:1"/>
<line x1="456" y1="85" x2="462" y2="85" style="stroke:rgb(0,0,0);stroke-width:1"/>

<line x1="444" y1="36" x2="454" y2="36" style="stroke:rgb(0,0,0);stroke-width:1;stroke-linecap:round"/>
<line x1="444" y1="88" x2="454" y2="88" style="stroke:rgb(0,0,0);stroke-width:1;stroke-linecap:round"/>
<line x1="444" y1="36" x2="444" y2="88" style="stroke:rgb(0,0,0);stroke-width:1;stroke-linecap:round"/>
<line x1="434" y1="62" x2="444" y2="62" style="stroke:rgb(0,0,0);stroke-width:1;stroke-linecap:round"/>
<path d="M400 52 L423 52 L429 58 L429 66 L423 72 L400 72 L394 66 L394 58 Z" style="fill:rgb(255,255,255);stroke:rgb(0,0,0);stroke-width:1"/>
<line x1="397" y1="62" x2="426" y2="62" style="stroke:rgb(0,0,0);stroke-width:1"/>
<ellipse cx="406" cy="62" rx="2" ry="2" style="rgb(0,0,0)"/>
<ellipse cx="411" cy="62" rx="2" ry="2" style="rgb(0,0,0)"/>
<ellipse cx="416" cy="62" rx="2" ry="2" style="rgb(0,0,0)"/>
<rect x="424" y="57" width="10" height="10" style="fill:rgb(255,255,255);stroke:rgb(0,0,0);stroke-width:1"/>
<line x1="426" y1="62" x2="432" y2="62" style="stroke:rgb(0,0,0);stroke-width:1"/>

<line x1="374" y1="62" x2="394" y2="62" style="stroke:rgb(0,0,0);stroke-width:1;stroke-linecap:round"/>
<rect x="305" y="54" width="67" height="22" style="fill:rgb(255,255,255);stroke:rgb(0,0,0);stroke-width:1"/>
<rect x="302" y="51" width="67" height="22" style="fill:rgb(255,255,255);stroke:rgb(0,0,0);stroke-width:1"/>
<text x="335.5" y="62" style="font-family:Arial;font-size:8pt;fill:rgb(0,0,0);font-weight:bold;text-anchor:middle;dominant-baseline:central">element</text>
<text x="364" y="83" style="font-family:Arial;font-size:7.2pt;fill:rgb(0,0,0);text-anchor:end;dominant-baseline:central">1..∞</text>
<rect x="364" y="57" width="10" height="10" style="fill:rgb(255,255,255);stroke:rgb(0,0,0);stroke-width:1"/>
<line x1="366" y1="62" x2="372" y2="62" style="stroke:rgb(0,0,0);stroke-width:1"/>

<rect x="482" y="129" width="49" height="22" style="fill:rgb(255,255,255);stroke:rgb(0,0,0);stroke-width:1"/>
<text x="506.5" y="140" style="font-family:Arial;font-size:8pt;fill:rgb(0,0,0);font-weight:bold;text-anchor:middle;dominant-baseline:central">value</text>
<line x1="484" y1="131" x2="492" y2="131" style="stroke:rgb(0,0,0);stroke-width:1"/>
<line x1="484" y1="133" x2="490" y2="133" style="stroke:rgb(0,0,0);stroke-width:1"/>
<line x1="484" y1="135" x2="490" y2="135" style="stroke:rgb(0,0,0);stroke-width:1"/>
<line x1="484" y1="137" x2="490" y2="137" style="stroke:rgb(0,0,0);stroke-width:1"/>

<rect x="482" y="181" width="78" height="22" style="fill:rgb(255,255,255);stroke:rgb(0,0,0);stroke-width:1"/>
<text x="521" y="192" style="font-family:Arial;font-size:8pt;fill:rgb(0,0,0);font-weight:bold;text-anchor:middle;dominant-baseline:central">description</text>
<line x1="484" y1="183" x2="492" y2="183" style="stroke:rgb(0,0,0);stroke-width:1"/>
<line x1="484" y1="185" x2="490" y2="185" style="stroke:rgb(0,0,0);stroke-width:1"/>
<line x1="484" y1="187" x2="490" y2="187" style="stroke:rgb(0,0,0);stroke-width:1"/>
<line x1="484" y1="189" x2="490" y2="189" style="stroke:rgb(0,0,0);stroke-width:1"/>

<line x1="472" y1="140" x2="482" y2="140" style="stroke:rgb(0,0,0);stroke-width:1;stroke-linecap:round"/>
<line x1="472" y1="192" x2="482" y2="192" style="stroke:rgb(0,0,0);stroke-width:1;stroke-linecap:round"/>
<line x1="472" y1="140" x2="472" y2="192" style="stroke:rgb(0,0,0);stroke-width:1;stroke-linecap:round"/>
<line x1="462" y1="166" x2="472" y2="166" style="stroke:rgb(0,0,0);stroke-width:1;stroke-linecap:round"/>
<path d="M428 156 L451 156 L457 162 L457 170 L451 176 L428 176 L422 170 L422 162 Z" style="fill:rgb(255,255,255);stroke:rgb(0,0,0);stroke-width:1"/>
<line x1="425" y1="166" x2="454" y2="166" style="stroke:rgb(0,0,0);stroke-width:1"/>
<ellipse cx="434" cy="166" rx="2" ry="2" style="rgb(0,0,0)"/>
<ellipse cx="439" cy="166" rx="2" ry="2" style="rgb(0,0,0)"/>
<ellipse cx="444" cy="166" rx="2" ry="2" style="rgb(0,0,0)"/>
<rect x="452" y="161" width="10" height="10" style="fill:rgb(255,255,255);stroke:rgb(0,0,0);stroke-width:1"/>
<line x1="454" y1="166" x2="460" y2="166" style="stroke:rgb(0,0,0);stroke-width:1"/>

<line x1="402" y1="166" x2="422" y2="166" style="stroke:rgb(0,0,0);stroke-width:1;stroke-linecap:round"/>
<rect x="305" y="158" width="95" height="22" style="fill:rgb(255,255,255);stroke:rgb(0,0,0);stroke-width:1"/>
<rect x="302" y="155" width="95" height="22" style="fill:rgb(255,255,255);stroke:rgb(0,0,0);stroke-width:1"/>
<text x="349.5" y="166" style="font-family:Arial;font-size:8pt;fill:rgb(0,0,0);font-weight:bold;text-anchor:middle;dominant-baseline:central">characteristic</text>
<text x="392" y="187" style="font-family:Arial;font-size:7.2pt;fill:rgb(0,0,0);text-anchor:end;dominant-baseline:central">2..2</text>
<rect x="392" y="161" width="10" height="10" style="fill:rgb(255,255,255);stroke:rgb(0,0,0);stroke-width:1"/>
<line x1="394" y1="166" x2="400" y2="166" style="stroke:rgb(0,0,0);stroke-width:1"/>

<rect x="302" y="233" width="49" height="22" style="fill:rgb(255,255,255);stroke:rgb(0,0,0);stroke-width:1"/>
<text x="326.5" y="244" style="font-family:Arial;font-size:8pt;fill:rgb(0,0,0);font-weight:bold;text-anchor:middle;dominant-baseline:central">map</text>
<rect x="346" y="239" width="10" height="10" style="fill:rgb(255,255,255);stroke:rgb(0,0,0);stroke-width:1"/>
<line x1="348" y1="244" x2="354" y2="244" style="stroke:rgb(0,0,0);stroke-width:1"/>
<line x1="351" y1="241" x2="351" y2="247" style="stroke:rgb(0,0,0);stroke-width:1"/>

<rect x="302" y="285" width="50" height="22" style="fill:rgb(255,255,255);stroke:rgb(0,0,0);stroke-width:1;stroke-dasharray:4,1"/>
<text x="327" y="296" style="font-family:Arial;font-size:8pt;fill:rgb(0,0,0);font-weight:bold;text-anchor:middle;dominant-baseline:central">notes</text>
<line x1="304" y1="287" x2="312" y2="287" style="stroke:rgb(0,0,0);stroke-width:1"/>
<line x1="304" y1="289" x2="310" y2="289" style="stroke:rgb(0,0,0);stroke-width:1"/>
<line x1="304" y1="291" x2="310" y2="291" style="stroke:rgb(0,0,0);stroke-width:1"/>
<line x1="304" y1="293" x2="310" y2="293" style="stroke:rgb(0,0,0);stroke-width:1"/>

<line x1="292" y1="62" x2="302" y2="62" style="stroke:rgb(0,0,0);stroke-width:1;stroke-linecap:round"/>
<line x1="292" y1="166" x2="302" y2="166" style="stroke:rgb(0,0,0);stroke-width:1;stroke-linecap:round"/>
<line x1="292" y1="244" x2="302" y2="244" style="stroke:rgb(0,0,0);stroke-width:1;stroke-linecap:round"/>
<line x1="292" y1="296" x2="302" y2="296" style="stroke:rgb(0,0,0);stroke-width:1;stroke-linecap:round"/>
<line x1="292" y1="62" x2="292" y2="296" style="stroke:rgb(0,0,0);stroke-width:1;stroke-linecap:round"/>
<line x1="282" y1="166" x2="292" y2="166" style="stroke:rgb(0,0,0);stroke-width:1;stroke-linecap:round"/>
<path d="M248 156 L271 156 L277 162 L277 170 L271 176 L248 176 L242 170 L242 162 Z" style="fill:rgb(255,255,255);stroke:rgb(0,0,0);stroke-width:1"/>
<line x1="245" y1="166" x2="274" y2="166" style="stroke:rgb(0,0,0);stroke-width:1"/>
<ellipse cx="254" cy="166" rx="2" ry="2" style="rgb(0,0,0)"/>
<ellipse cx="259" cy="166" rx="2" ry="2" style="rgb(0,0,0)"/>
<ellipse cx="264" cy="166" rx="2" ry="2" style="rgb(0,0,0)"/>
<rect x="272" y="161" width="10" height="10" style="fill:rgb(255,255,255);stroke:rgb(0,0,0);stroke-width:1"/>
<line x1="274" y1="166" x2="280" y2="166" style="stroke:rgb(0,0,0);stroke-width:1"/>

<line x1="222" y1="166" x2="242" y2="166" style="stroke:rgb(0,0,0);stroke-width:1;stroke-linecap:round"/>
<rect x="167" y="158" width="53" height="22" style="fill:rgb(255,255,255);stroke:rgb(0,0,0);stroke-width:1"/>
<rect x="164" y="155" width="53" height="22" style="fill:rgb(255,255,255);stroke:rgb(0,0,0);stroke-width:1"/>
<text x="190.5" y="166" style="font-family:Arial;font-size:8pt;fill:rgb(0,0,0);font-weight:bold;text-anchor:middle;dominant-baseline:central">Alloy</text>
<text x="212" y="187" style="font-family:Arial;font-size:7.2pt;fill:rgb(0,0,0);text-anchor:end;dominant-baseline:central">1..∞</text>
<rect x="212" y="161" width="10" height="10" style="fill:rgb(255,255,255);stroke:rgb(0,0,0);stroke-width:1"/>
<line x1="214" y1="166" x2="220" y2="166" style="stroke:rgb(0,0,0);stroke-width:1"/>

<line x1="144" y1="166" x2="164" y2="166" style="stroke:rgb(0,0,0);stroke-width:1;stroke-linecap:round"/>
<path d="M110 156 L133 156 L139 162 L139 170 L133 176 L110 176 L104 170 L104 162 Z" style="fill:rgb(255,255,255);stroke:rgb(0,0,0);stroke-width:1"/>
<line x1="107" y1="166" x2="136" y2="166" style="stroke:rgb(0,0,0);stroke-width:1"/>
<ellipse cx="116" cy="166" rx="2" ry="2" style="rgb(0,0,0)"/>
<ellipse cx="121" cy="166" rx="2" ry="2" style="rgb(0,0,0)"/>
<ellipse cx="126" cy="166" rx="2" ry="2" style="rgb(0,0,0)"/>
<rect x="134" y="161" width="10" height="10" style="fill:rgb(255,255,255);stroke:rgb(0,0,0);stroke-width:1"/>
<line x1="136" y1="166" x2="142" y2="166" style="stroke:rgb(0,0,0);stroke-width:1"/>

<line x1="84" y1="166" x2="104" y2="166" style="stroke:rgb(0,0,0);stroke-width:1;stroke-linecap:round"/>
<rect x="20" y="155" width="59" height="22" style="fill:rgb(255,255,255);stroke:rgb(0,0,0);stroke-width:1"/>
<text x="49.5" y="166" style="font-family:Arial;font-size:8pt;fill:rgb(0,0,0);font-weight:bold;text-anchor:middle;dominant-baseline:central">Alloys</text>
<rect x="74" y="161" width="10" height="10" style="fill:rgb(255,255,255);stroke:rgb(0,0,0);stroke-width:1"/>
<line x1="76" y1="166" x2="82" y2="166" style="stroke:rgb(0,0,0);stroke-width:1"/>
</svg>
